<svg 
 xmlns="http://www.w3.org/2000/svg"
 xmlns:xlink="http://www.w3.org/1999/xlink"
>
<path fill-rule="evenodd"
 d="M195.297,72.237 C195.297,97.863 185.374,121.160 169.182,138.537 C169.139,138.493 169.90,138.452 169.47,138.407 C169.47,138.407 169.47,138.407 169.47,138.407 C168.941,138.518 168.829,138.619 168.716,138.723 C168.498,138.924 168.272,139.116 168.31,139.289 C167.922,139.366 167.810,139.433 167.698,139.504 C167.409,139.687 167.110,139.855 166.795,139.994 C166.724,140.25 166.651,140.48 166.579,140.77 C166.216,140.222 165.840,140.345 165.449,140.427 C165.419,140.434 165.387,140.436 165.357,140.442 C164.925,140.527 164.480,140.577 164.23,140.577 C160.184,140.577 157.73,137.465 157.73,133.627 C157.73,133.181 157.121,132.748 157.204,132.327 C157.254,132.60 157.342,131.810 157.422,131.555 C157.465,131.424 157.495,131.288 157.545,131.160 C157.673,130.823 157.835,130.507 158.12,130.197 C158.27,130.172 158.39,130.144 158.55,130.119 C158.253,129.782 158.479,129.469 158.729,129.172 L158.228,128.731 C172.569,113.752 181.397,93.453 181.397,71.79 L181.397,71.79 L181.368,71.79 C181.370,70.885 181.376,70.692 181.382,70.500 C181.376,70.307 181.370,70.114 181.368,69.920 L181.397,69.920 L181.397,69.920 C181.397,47.546 172.569,27.247 158.228,12.268 L158.729,11.827 C158.479,11.530 158.253,11.217 158.55,10.880 C158.39,10.855 158.27,10.827 158.12,10.802 C157.835,10.492 157.673,10.176 157.545,9.839 C157.495,9.711 157.465,9.575 157.422,9.444 C157.342,9.189 157.254,8.939 157.204,8.672 C157.121,8.251 157.73,7.818 157.73,7.372 C157.73,3.534 160.184,0.422 164.23,0.422 C164.480,0.422 164.925,0.472 165.357,0.557 C165.387,0.563 165.419,0.565 165.449,0.572 C165.840,0.654 166.216,0.777 166.579,0.922 C166.651,0.951 166.724,0.974 166.795,1.5 C167.110,1.144 167.409,1.312 167.698,1.495 C167.810,1.566 167.923,1.633 168.31,1.710 C168.272,1.883 168.498,2.75 168.716,2.276 C168.829,2.380 168.941,2.481 169.47,2.592 C169.90,2.547 169.139,2.506 169.182,2.462 C185.374,19.839 195.297,43.136 195.297,68.762 C195.297,69.345 195.272,69.921 195.253,70.500 C195.272,71.78 195.297,71.654 195.297,72.237 ZM167.483,70.500 C167.489,70.692 167.498,70.884 167.498,71.79 C167.498,89.929 159.981,107.15 147.796,119.535 L147.535,119.305 L147.535,119.305 C147.248,119.539 146.946,119.749 146.623,119.935 C146.583,119.959 146.541,119.979 146.501,120.2 C146.212,120.161 145.918,120.307 145.606,120.424 C145.463,120.479 145.313,120.515 145.166,120.561 C144.931,120.631 144.702,120.710 144.458,120.756 C144.42,120.837 143.614,120.886 143.173,120.886 C139.335,120.886 136.223,117.774 136.223,113.936 C136.223,113.511 136.275,113.101 136.348,112.698 C136.367,112.594 136.387,112.491 136.410,112.388 C136.497,112.11 136.605,111.642 136.750,111.292 C136.789,111.197 136.842,111.111 136.885,111.19 C137.2,110.770 137.131,110.529 137.276,110.297 C137.364,110.155 137.453,110.15 137.551,109.880 C137.699,109.677 137.861,109.485 138.30,109.298 C138.215,109.94 138.411,108.906 138.618,108.725 C138.727,108.630 138.838,108.538 138.952,108.449 C139.133,108.310 139.313,108.175 139.507,108.54 L139.507,108.54 C148.267,98.227 153.598,85.278 153.598,71.79 L153.598,71.79 L153.569,71.79 C153.573,70.885 153.577,70.692 153.583,70.500 C153.577,70.307 153.573,70.114 153.569,69.920 L153.598,69.920 L153.598,69.920 C153.598,55.721 148.267,42.772 139.507,32.945 L139.507,32.945 C139.313,32.824 139.133,32.689 138.952,32.550 C138.838,32.461 138.727,32.369 138.618,32.274 C138.411,32.93 138.215,31.905 138.30,31.701 C137.861,31.514 137.699,31.322 137.551,31.119 C137.453,30.984 137.364,30.844 137.276,30.702 C137.131,30.470 137.2,30.229 136.885,29.980 C136.842,29.888 136.789,29.802 136.750,29.707 C136.605,29.357 136.497,28.988 136.410,28.611 C136.387,28.508 136.367,28.405 136.348,28.301 C136.275,27.898 136.223,27.488 136.223,27.63 C136.223,23.225 139.335,20.113 143.173,20.113 C143.614,20.113 144.42,20.162 144.458,20.243 C144.702,20.289 144.931,20.368 145.166,20.438 C145.313,20.484 145.463,20.520 145.606,20.575 C145.918,20.692 146.212,20.838 146.501,20.997 C146.541,21.20 146.583,21.40 146.623,21.64 C146.946,21.250 147.248,21.460 147.535,21.694 L147.535,21.694 L147.796,21.464 C159.981,33.984 167.498,51.70 167.498,69.920 C167.498,70.115 167.489,70.307 167.483,70.500 ZM139.684,70.500 C139.690,70.692 139.698,70.884 139.698,71.79 C139.698,82.883 134.786,93.533 126.903,101.119 L126.597,100.849 C126.303,101.220 125.976,101.556 125.614,101.859 C125.554,101.911 125.493,101.961 125.431,102.10 C125.198,102.193 124.958,102.361 124.703,102.513 C124.505,102.633 124.302,102.745 124.91,102.845 C123.955,102.909 123.819,102.970 123.677,103.25 C123.349,103.155 123.10,103.262 122.659,103.341 C122.577,103.359 122.495,103.370 122.412,103.385 C122.7,103.461 121.593,103.511 121.166,103.511 C117.327,103.511 114.216,100.400 114.216,96.561 C114.216,96.138 114.267,95.730 114.340,95.329 C114.361,95.210 114.387,95.93 114.414,94.977 C114.486,94.672 114.578,94.376 114.690,94.89 C114.752,93.925 114.821,93.767 114.895,93.610 C115.9,93.374 115.130,93.143 115.268,92.923 C115.386,92.732 115.515,92.553 115.650,92.376 C115.715,92.291 115.784,92.211 115.853,92.130 C116.391,91.485 117.37,90.946 117.773,90.531 C122.713,85.516 125.799,78.674 125.799,71.79 L125.799,71.79 L125.740,71.79 C125.748,70.885 125.757,70.692 125.769,70.500 C125.757,70.307 125.748,70.114 125.740,69.920 L125.799,69.920 L125.799,69.920 C125.799,62.325 122.713,55.483 117.773,50.468 C117.37,50.53 116.391,49.514 115.853,48.869 C115.784,48.788 115.715,48.708 115.650,48.623 C115.515,48.446 115.386,48.267 115.268,48.76 C115.130,47.856 115.9,47.625 114.895,47.389 C114.821,47.232 114.752,47.74 114.690,46.910 C114.578,46.623 114.486,46.327 114.414,46.22 C114.387,45.906 114.361,45.789 114.340,45.670 C114.267,45.269 114.216,44.861 114.216,44.438 C114.216,40.599 117.327,37.488 121.166,37.488 C121.593,37.488 122.7,37.538 122.412,37.614 C122.495,37.629 122.577,37.640 122.659,37.658 C123.10,37.737 123.349,37.844 123.677,37.974 C123.819,38.29 123.955,38.90 124.91,38.154 C124.302,38.254 124.505,38.366 124.703,38.486 C124.958,38.638 125.198,38.806 125.431,38.989 C125.493,39.38 125.554,39.88 125.614,39.140 C125.976,39.443 126.303,39.779 126.597,40.150 C126.597,40.150 126.597,40.150 126.597,40.150 L126.903,39.880 C134.786,47.466 139.698,58.116 139.698,69.920 C139.698,70.115 139.690,70.307 139.684,70.500 ZM98.1,84.975 C90.324,84.975 84.101,78.752 84.101,71.76 C84.101,70.881 84.120,70.691 84.130,70.500 C84.120,70.308 84.101,70.118 84.101,69.923 C84.101,62.247 90.324,56.24 98.1,56.24 C105.677,56.24 111.901,62.247 111.901,69.923 C111.901,70.118 111.882,70.308 111.871,70.500 C111.882,70.691 111.901,70.881 111.901,71.76 C111.901,78.752 105.677,84.975 98.1,84.975 ZM78.90,90.457 C78.90,90.457 78.90,90.457 78.90,90.457 C78.863,90.871 79.542,91.419 80.106,92.81 C80.176,92.162 80.244,92.245 80.311,92.329 C80.453,92.513 80.591,92.695 80.714,92.893 C80.893,93.174 81.55,93.466 81.192,93.773 C81.241,93.886 81.276,94.4 81.319,94.120 C81.424,94.393 81.511,94.674 81.581,94.962 C81.609,95.83 81.637,95.203 81.659,95.327 C81.732,95.728 81.783,96.138 81.783,96.561 C81.783,100.400 78.672,103.511 74.833,103.511 C74.351,103.511 73.880,103.461 73.425,103.367 C73.366,103.355 73.314,103.328 73.256,103.315 C72.862,103.223 72.475,103.111 72.110,102.955 C72.96,102.949 72.84,102.939 72.70,102.933 C71.249,102.577 70.510,102.68 69.890,101.440 L69.890,101.440 L69.652,101.650 C61.443,94.34 56.301,83.159 56.301,71.79 C56.301,70.884 56.309,70.692 56.315,70.500 C56.309,70.307 56.301,70.115 56.301,69.920 C56.301,57.840 61.443,46.965 69.652,39.349 L69.890,39.559 C69.890,39.559 69.890,39.559 69.890,39.559 C70.510,38.931 71.249,38.422 72.70,38.66 C72.84,38.60 72.96,38.50 72.110,38.44 C72.475,37.888 72.862,37.776 73.256,37.684 C73.314,37.671 73.366,37.644 73.425,37.632 C73.880,37.538 74.351,37.488 74.833,37.488 C78.672,37.488 81.783,40.599 81.783,44.438 C81.783,44.861 81.732,45.271 81.659,45.672 C81.637,45.796 81.609,45.916 81.581,46.37 C81.511,46.325 81.424,46.606 81.319,46.879 C81.276,46.995 81.241,47.113 81.192,47.226 C81.55,47.533 80.893,47.825 80.714,48.106 C80.591,48.304 80.453,48.486 80.311,48.670 C80.244,48.754 80.176,48.837 80.106,48.918 C79.542,49.580 78.863,50.128 78.90,50.542 C78.90,50.542 78.90,50.542 78.90,50.542 C73.213,55.549 70.200,62.379 70.200,69.920 L70.200,69.920 L70.259,69.920 C70.251,70.114 70.242,70.307 70.230,70.500 C70.242,70.692 70.251,70.885 70.259,71.79 L70.200,71.79 L70.200,71.79 C70.200,78.620 73.213,85.450 78.90,90.457 ZM59.570,28.670 C59.457,29.147 59.291,29.601 59.85,30.35 L59.189,30.126 C59.71,30.242 58.960,30.364 58.843,30.481 C58.455,31.162 57.962,31.766 57.375,32.279 C57.268,32.373 57.157,32.464 57.43,32.552 C56.877,32.680 56.714,32.808 56.536,32.921 C47.756,42.751 42.401,55.703 42.401,69.920 L42.401,69.920 L42.430,69.920 C42.426,70.114 42.422,70.307 42.416,70.500 C42.422,70.692 42.426,70.885 42.430,71.79 L42.401,71.79 L42.401,71.79 C42.401,85.296 47.756,98.248 56.536,108.78 C56.714,108.191 56.877,108.319 57.43,108.447 C57.157,108.535 57.268,108.626 57.375,108.720 C57.962,109.233 58.455,109.837 58.843,110.518 C58.960,110.635 59.71,110.757 59.189,110.873 L59.85,110.964 C59.291,111.398 59.457,111.852 59.570,112.329 C59.577,112.354 59.587,112.377 59.593,112.403 C59.705,112.897 59.776,113.407 59.776,113.936 C59.776,117.774 56.664,120.886 52.826,120.886 C52.404,120.886 51.997,120.835 51.597,120.762 C51.453,120.736 51.314,120.701 51.173,120.666 C50.927,120.605 50.689,120.530 50.455,120.443 C50.292,120.384 50.128,120.329 49.972,120.258 C49.665,120.118 49.368,119.959 49.86,119.778 C49.86,119.778 49.86,119.778 49.86,119.778 L48.732,120.90 C36.230,107.524 28.502,90.205 28.502,71.79 C28.502,70.884 28.510,70.692 28.516,70.500 C28.510,70.307 28.502,70.115 28.502,69.920 C28.502,50.794 36.230,33.475 48.732,20.909 L49.86,21.221 C49.86,21.221 49.86,21.221 49.86,21.221 C49.368,21.40 49.665,20.881 49.972,20.741 C50.128,20.670 50.292,20.615 50.455,20.556 C50.689,20.469 50.927,20.394 51.173,20.333 C51.314,20.298 51.453,20.263 51.597,20.237 C51.997,20.164 52.404,20.113 52.826,20.113 C56.664,20.113 59.776,23.225 59.776,27.63 C59.776,27.592 59.705,28.102 59.593,28.596 C59.587,28.622 59.577,28.645 59.570,28.670 ZM38.714,9.2 C38.644,9.290 38.558,9.569 38.453,9.842 C38.407,9.964 38.364,10.86 38.311,10.205 C38.150,10.563 37.969,10.909 37.753,11.232 L38.300,11.714 C23.644,26.743 14.602,47.271 14.602,69.920 L14.602,69.920 L14.631,69.920 C14.629,70.114 14.623,70.307 14.617,70.500 C14.623,70.692 14.629,70.885 14.631,71.79 L14.602,71.79 L14.602,71.79 C14.602,93.728 23.644,114.256 38.300,129.285 L37.753,129.767 C37.969,130.90 38.150,130.436 38.311,130.794 C38.364,130.913 38.407,131.35 38.453,131.157 C38.558,131.430 38.644,131.709 38.714,131.997 C38.744,132.121 38.776,132.243 38.799,132.370 C38.875,132.779 38.926,133.196 38.926,133.627 C38.926,137.465 35.815,140.577 31.976,140.577 C31.534,140.577 31.105,140.528 30.688,140.447 C30.438,140.400 30.203,140.318 29.963,140.245 C29.821,140.200 29.674,140.166 29.535,140.113 C29.217,139.992 28.917,139.842 28.623,139.678 C28.586,139.658 28.549,139.640 28.513,139.619 C28.186,139.429 27.880,139.215 27.590,138.977 C27.533,139.40 27.471,139.100 27.414,139.164 C27.414,139.164 27.414,139.164 27.414,139.164 C10.871,121.722 0.702,98.174 0.702,72.237 C0.702,71.654 0.727,71.78 0.746,70.500 C0.727,69.921 0.702,69.345 0.702,68.762 C0.702,42.825 10.871,19.277 27.414,1.835 C27.414,1.835 27.414,1.835 27.414,1.835 C27.471,1.899 27.533,1.959 27.590,2.22 C27.880,1.784 28.186,1.570 28.513,1.380 C28.549,1.359 28.586,1.341 28.623,1.321 C28.917,1.157 29.217,1.7 29.535,0.886 C29.674,0.833 29.821,0.799 29.963,0.754 C30.203,0.681 30.438,0.599 30.688,0.552 C31.105,0.471 31.534,0.422 31.976,0.422 C35.815,0.422 38.926,3.534 38.926,7.372 C38.926,7.803 38.875,8.220 38.799,8.629 C38.776,8.756 38.744,8.878 38.714,9.2 Z"/>
</svg>