<svg 
 xmlns="http://www.w3.org/2000/svg"
 xmlns:xlink="http://www.w3.org/1999/xlink"
>
<path fill-rule="evenodd"
 d="M126.524,193.819 L21.465,193.819 C10.87,193.819 0.865,184.597 0.865,173.219 L0.865,68.160 C0.865,56.782 10.87,47.560 21.465,47.560 L126.524,47.560 C137.902,47.560 147.124,56.782 147.124,68.160 L147.124,173.219 C147.124,184.597 137.902,193.819 126.524,193.819 ZM105.205,75.383 C88.660,78.931 62.835,84.314 59.242,85.152 C55.438,86.39 56.193,89.298 56.193,89.298 C56.193,89.298 55.896,128.345 55.748,147.868 C54.381,146.515 52.103,146.118 49.445,146.118 C46.408,146.118 42.763,147.709 39.877,150.176 C36.992,152.563 34.865,155.825 34.865,159.88 C34.865,161.157 35.701,162.908 37.143,164.101 C38.510,165.295 40.857,167.39 42.984,167.39 C46.325,167.39 51.276,167.353 54.161,164.966 C57.122,162.579 61.274,158.181 61.274,154.601 C61.274,154.601 62.108,115.491 62.265,108.112 C62.281,107.344 62.770,106.377 65.449,106.223 C74.501,104.226 99.887,98.627 99.887,98.627 L100.903,133.870 C100.544,137.470 101.847,137.162 98.802,136.834 C95.764,136.834 92.120,138.426 89.234,140.892 C86.348,143.279 84.222,146.542 84.222,149.804 C84.222,151.873 85.58,153.624 86.500,154.818 C87.867,156.11 89.842,156.727 91.967,156.727 C95.309,156.727 99.106,155.295 101.992,152.908 C104.953,150.521 107.3,147.258 107.3,143.678 C107.3,143.678 107.732,91.534 107.969,77.977 C107.994,76.572 105.770,75.262 105.205,75.383 ZM20.434,32.110 C20.434,26.421 25.46,21.810 30.734,21.810 L118.285,21.810 C123.973,21.810 128.585,26.421 128.585,32.110 L128.585,33.140 L20.434,33.140 L20.434,32.110 ZM34.855,10.480 C34.855,4.791 39.466,0.180 45.154,0.180 L104.895,0.180 C110.583,0.180 115.195,4.791 115.195,10.480 L115.195,11.510 L34.855,11.510 L34.855,10.480 Z"/>
</svg>