<svg 
 xmlns="http://www.w3.org/2000/svg"
 xmlns:xlink="http://www.w3.org/1999/xlink"
>
<path fill-rule="evenodd"
 d="M161.0,175.0 L109.0,175.0 C100.715,175.0 93.999,168.284 93.999,160.0 L93.999,108.0 C93.999,99.715 100.715,93.0 109.0,93.0 L161.0,93.0 C169.284,93.0 175.999,99.715 175.999,108.0 L175.999,160.0 C175.999,168.284 169.284,175.0 161.0,175.0 ZM161.0,81.999 L109.0,81.999 C100.715,81.999 93.999,75.284 93.999,66.999 L93.999,14.999 C93.999,6.715 100.715,0.0 109.0,0.0 L161.0,0.0 C169.284,0.0 175.999,6.715 175.999,14.999 L175.999,66.999 C175.999,75.284 169.284,81.999 161.0,81.999 ZM66.999,175.0 L14.999,175.0 C6.715,175.0 0.0,168.284 0.0,160.0 L0.0,108.0 C0.0,99.715 6.715,93.0 14.999,93.0 L66.999,93.0 C75.284,93.0 82.0,99.715 82.0,108.0 L82.0,160.0 C82.0,168.284 75.284,175.0 66.999,175.0 ZM66.999,81.999 L14.999,81.999 C6.715,81.999 0.0,75.284 0.0,66.999 L0.0,14.999 C0.0,6.715 6.715,0.0 14.999,0.0 L66.999,0.0 C75.284,0.0 82.0,6.715 82.0,14.999 L82.0,66.999 C82.0,75.284 75.284,81.999 66.999,81.999 Z"/>
</svg>