<svg 
 xmlns="http://www.w3.org/2000/svg"
 xmlns:xlink="http://www.w3.org/1999/xlink"
>
<path fill-rule="evenodd"
 d="M194.56,186.757 L185.323,194.914 C182.94,197.930 177.32,197.758 174.16,194.529 L128.190,145.465 C114.923,155.122 98.600,160.833 80.935,160.833 C36.532,160.833 0.535,124.837 0.535,80.433 C0.535,36.29 36.532,0.33 80.935,0.33 C125.339,0.33 161.335,36.29 161.335,80.433 C161.335,97.64 156.285,112.514 147.635,125.337 L194.442,175.450 C197.458,178.679 197.285,183.741 194.56,186.757 ZM80.935,24.153 C49.853,24.153 24.655,49.350 24.655,80.433 C24.655,111.516 49.853,136.713 80.935,136.713 C112.18,136.713 137.215,111.516 137.215,80.433 C137.215,49.350 112.18,24.153 80.935,24.153 Z"/>
</svg>