<svg 
 xmlns="http://www.w3.org/2000/svg"
 xmlns:xlink="http://www.w3.org/1999/xlink"
>
<path fill-rule="evenodd"
 d="M133.669,100.869 C131.328,132.537 106.947,158.60 75.802,162.159 C76.166,163.121 76.375,164.160 76.375,165.250 L76.375,179.0 L106.999,179.0 C112.177,179.0 116.375,183.197 116.375,188.375 C116.375,193.552 112.177,197.750 106.999,197.750 L27.0,197.750 C21.822,197.750 17.624,193.552 17.624,188.375 C17.624,183.197 21.822,179.0 27.0,179.0 L58.874,179.0 L58.874,165.250 C58.874,164.214 59.64,163.226 59.394,162.304 C27.679,158.710 2.701,132.942 0.330,100.869 C0.198,100.266 0.124,99.642 0.124,98.999 L0.124,95.874 L0.124,76.499 L0.124,75.249 L0.224,75.249 C0.525,73.147 1.570,71.290 3.88,69.948 C3.110,69.929 3.130,69.909 3.152,69.890 C3.508,69.582 3.888,69.305 4.290,69.57 C4.339,69.27 4.387,68.997 4.436,68.968 C4.831,68.735 5.244,68.531 5.675,68.361 C5.736,68.338 5.797,68.317 5.858,68.294 C6.296,68.133 6.747,68.1 7.214,67.912 C7.264,67.902 7.315,67.897 7.366,67.888 C7.857,67.803 8.359,67.749 8.875,67.749 C9.390,67.749 9.892,67.803 10.383,67.888 C10.434,67.897 10.485,67.902 10.535,67.912 C11.2,68.1 11.453,68.133 11.891,68.294 C11.952,68.317 12.13,68.338 12.74,68.361 C12.505,68.531 12.918,68.735 13.313,68.968 C13.362,68.997 13.410,69.27 13.459,69.57 C13.861,69.305 14.241,69.582 14.597,69.890 C14.619,69.909 14.639,69.929 14.661,69.948 C16.179,71.290 17.224,73.147 17.525,75.249 L17.624,75.249 L17.624,76.499 L17.624,97.749 C17.624,124.673 39.451,146.500 66.375,146.500 L67.624,146.500 C94.548,146.500 116.375,124.673 116.375,97.749 L116.375,76.499 L116.375,75.249 L116.474,75.249 C116.775,73.147 117.820,71.290 119.338,69.948 C119.360,69.929 119.380,69.909 119.402,69.890 C119.758,69.582 120.138,69.305 120.540,69.57 C120.589,69.27 120.637,68.997 120.686,68.968 C121.81,68.735 121.494,68.531 121.925,68.361 C121.986,68.338 122.47,68.317 122.108,68.294 C122.546,68.133 122.997,68.1 123.464,67.912 C123.514,67.902 123.565,67.897 123.616,67.888 C124.107,67.803 124.609,67.749 125.124,67.749 C125.640,67.749 126.142,67.803 126.633,67.888 C126.684,67.897 126.735,67.902 126.785,67.912 C127.252,68.1 127.703,68.133 128.141,68.294 C128.202,68.317 128.263,68.338 128.324,68.361 C128.755,68.531 129.168,68.735 129.563,68.968 C129.612,68.997 129.660,69.27 129.709,69.57 C130.111,69.305 130.491,69.582 130.847,69.890 C130.869,69.909 130.889,69.929 130.911,69.948 C132.429,71.290 133.474,73.147 133.775,75.249 L133.875,75.249 L133.875,76.499 L133.875,95.874 L133.875,98.999 C133.875,99.642 133.801,100.266 133.669,100.869 ZM67.624,129.0 L66.375,129.0 C49.116,129.0 35.125,115.8 35.125,97.749 L35.125,31.499 C35.125,14.241 49.116,0.249 66.375,0.249 L67.624,0.249 C84.883,0.249 98.874,14.241 98.874,31.499 L98.874,97.749 C98.874,115.8 84.883,129.0 67.624,129.0 Z"/>
</svg>